HIERARCHY
ROOT Hips
{
	OFFSET 0.00000 0.00000 0.00000
	CHANNELS 6 Xposition Yposition Zposition Zrotation Yrotation Xrotation 
	JOINT LHipJoint
	{
		OFFSET 0 0 0
		CHANNELS 3 Zrotation Yrotation Xrotation
		JOINT LeftUpLeg
		{
			OFFSET 1.48831 -1.59570 0.95625
			CHANNELS 3 Zrotation Yrotation Xrotation
			JOINT LeftLeg
			{
				OFFSET 2.20856 -6.06797 0.00000
				CHANNELS 3 Zrotation Yrotation Xrotation
				JOINT LeftFoot
				{
					OFFSET 2.62924 -7.22379 0.00000
					CHANNELS 3 Zrotation Yrotation Xrotation
					JOINT LeftToeBase
					{
						OFFSET 0.16802 -0.46163 2.41673
						CHANNELS 3 Zrotation Yrotation Xrotation
						End Site
						{
							OFFSET 0.00000 -0.00000 1.23760
						}
					}
				}
			}
		}
	}
	JOINT RHipJoint
	{
		OFFSET 0 0 0
		CHANNELS 3 Zrotation Yrotation Xrotation
		JOINT RightUpLeg
		{
			OFFSET -1.56796 -1.59570 0.95625
			CHANNELS 3 Zrotation Yrotation Xrotation
			JOINT RightLeg
			{
				OFFSET -2.29239 -6.29829 0.00000
				CHANNELS 3 Zrotation Yrotation Xrotation
				JOINT RightFoot
				{
					OFFSET -2.66963 -7.33475 0.00000
					CHANNELS 3 Zrotation Yrotation Xrotation
					JOINT RightToeBase
					{
						OFFSET -0.18185 -0.49964 2.34359
						CHANNELS 3 Zrotation Yrotation Xrotation
						End Site
						{
							OFFSET -0.00000 -0.00000 1.20477
						}
					}
				}
			}
		}
	}
	JOINT LowerBack
	{
		OFFSET 0 0 0
		CHANNELS 3 Zrotation Yrotation Xrotation
		JOINT Spine
		{
			OFFSET 0.03505 2.15832 -0.34324
			CHANNELS 3 Zrotation Yrotation Xrotation
			JOINT Spine1
			{
				OFFSET -0.01089 2.17963 0.04689
				CHANNELS 3 Zrotation Yrotation Xrotation
				JOINT Neck
				{
					OFFSET 0 0 0
					CHANNELS 3 Zrotation Yrotation Xrotation
					JOINT Neck1
					{
						OFFSET 0.04686 1.69404 0.22159
						CHANNELS 3 Zrotation Yrotation Xrotation
						JOINT Head
						{
							OFFSET 0.00265 1.69305 -0.01513
							CHANNELS 3 Zrotation Yrotation Xrotation
							End Site
							{
								OFFSET -0.00415 1.80215 -0.03034
							}
						}
					}
				}
				JOINT LeftShoulder
				{
					OFFSET 0 0 0
					CHANNELS 3 Zrotation Yrotation Xrotation
					JOINT LeftArm
					{
						OFFSET 3.67184 1.11724 -0.19002
						CHANNELS 3 Zrotation Yrotation Xrotation
						JOINT LeftForeArm
						{
							OFFSET 5.17714 -0.00000 -0.00000
							CHANNELS 3 Zrotation Yrotation Xrotation
							JOINT LeftHand
							{
								OFFSET 3.43679 -0.00000 -0.00000
								CHANNELS 3 Zrotation Yrotation Xrotation
								JOINT LeftFingerBase
								{
									OFFSET 0 0 0
									CHANNELS 3 Zrotation Yrotation Xrotation
									JOINT LeftHandIndex1
									{
										OFFSET 0.57312 -0.00000 -0.00000
										CHANNELS 3 Zrotation Yrotation Xrotation
										End Site
										{
											OFFSET 0.46206 -0.00000 -0.00000
										}
									}
								}
								JOINT LThumb
								{
									OFFSET 0 0 0
									CHANNELS 3 Zrotation Yrotation Xrotation
									End Site
									{
										OFFSET 0.46912 -0.00000 0.46912
									}
								}
							}
						}
					}
				}
				JOINT RightShoulder
				{
					OFFSET 0 0 0
					CHANNELS 3 Zrotation Yrotation Xrotation
					JOINT RightArm
					{
						OFFSET -3.59596 0.95831 -0.26050
						CHANNELS 3 Zrotation Yrotation Xrotation
						JOINT RightForeArm
						{
							OFFSET -5.23908 -0.00000 -0.00000
							CHANNELS 3 Zrotation Yrotation Xrotation
							JOINT RightHand
							{
								OFFSET -3.46485 -0.00000 -0.00000
								CHANNELS 3 Zrotation Yrotation Xrotation
								JOINT RightFingerBase
								{
									OFFSET 0 0 0
									CHANNELS 3 Zrotation Yrotation Xrotation
									JOINT RightHandIndex1
									{
										OFFSET -0.60875 -0.00000 -0.00000
										CHANNELS 3 Zrotation Yrotation Xrotation
										End Site
										{
											OFFSET -0.49079 -0.00000 -0.00000
										}
									}
								}
								JOINT RThumb
								{
									OFFSET 0 0 0
									CHANNELS 3 Zrotation Yrotation Xrotation
									End Site
									{
										OFFSET -0.49829 -0.00000 0.49829
									}
								}
							}
						}
					}
				}
			}
		}
	}
}
MOTION
Frames: 13
Frame Time: .0083333
5.0569 16.3027 -24.0672 -540.5300 -59.6077 538.2940 0.0000 0.0000 0.0000 -18.2725 5.3164 -7.0383 2.2697 9.4066 27.0756 0.8493 -4.8561 -16.4584 0.1593 -2.5714 -7.0877 0.0000 0.0000 0.0000 18.7077 21.7726 -8.5932 -4.0122 -12.1766 36.3598 -0.7583 11.5246 -16.3909 -0.0654 -1.6497 4.5384 4.3034 0.5719 1.7688 1.6323 0.7378 1.8419 -0.7428 0.3822 0.9348 2.8282 1.6248 8.8654 -2.7389 1.8481 -18.2984 -1.4967 0.7918 -6.9898 0.0000 -0.0000 0.0000 -63.4507 -19.5582 -5.9434 14.5492 -23.5143 -3.0438 -0.0000 0.0000 -17.7230 42.0280 -0.6682 -0.6022 -7.1250 0.0000 -0.0000 12.0116 28.9845 -4.7827 0.0000 -0.0000 0.0000 71.4426 61.5524 60.9155 -22.8905 33.9689 -7.0770 0.0000 0.0000 5.5590 -52.7283 2.2652 -2.9731 7.1250 -0.0000 -0.0000 -19.5508 -26.1061 -9.4833
5.0487 16.2969 -24.0355 -540.6590 -59.3802 538.3760 0.0000 0.0000 0.0000 -18.4924 5.4769 -6.9602 2.2436 9.3561 26.9156 0.8691 -4.7073 -16.6630 0.1489 -2.4866 -6.8524 0.0000 0.0000 0.0000 18.4915 21.8383 -8.7054 -4.0394 -12.2126 36.4883 -0.7389 11.7530 -16.2828 -0.0619 -1.6052 4.4156 4.2639 0.5380 1.7555 1.6414 0.6910 1.8443 -0.7109 0.3584 0.9419 2.9686 1.8364 8.8084 -2.8517 2.1525 -18.0472 -1.5782 0.9437 -6.8861 0.0000 -0.0000 0.0000 -63.5774 -19.4243 -6.0002 14.2792 -23.1324 -2.9369 -0.0000 0.0000 -17.4330 41.9471 -0.6446 -0.5792 -7.1250 0.0000 -0.0000 11.9535 29.0178 -4.7489 0.0000 -0.0000 0.0000 72.3178 61.1845 62.3714 -23.2525 34.3638 -7.2803 0.0000 0.0000 5.0212 -52.4923 2.1629 -2.8150 7.1250 -0.0000 -0.0000 -19.4150 -26.2864 -9.3218
5.0405 16.2908 -24.0036 -540.8010 -59.1529 538.4640 0.0000 0.0000 0.0000 -18.7201 5.6388 -6.8834 2.2191 9.3083 26.7644 0.8883 -4.5715 -16.8611 0.1376 -2.3909 -6.5871 0.0000 0.0000 0.0000 18.2656 21.8859 -8.8158 -4.0662 -12.2479 36.6147 -0.7203 11.9847 -16.1864 -0.0553 -1.5171 4.1728 4.2212 0.5022 1.7490 1.6454 0.6427 1.8433 -0.6825 0.3337 0.9417 3.1164 2.0509 8.7636 -2.9636 2.4626 -17.7930 -1.6602 1.0985 -6.7828 0.0000 -0.0000 0.0000 -63.7069 -19.2546 -6.0128 14.0296 -22.7770 -2.8395 -0.0000 0.0000 -17.1568 41.8643 -0.6189 -0.5546 -7.1250 0.0000 -0.0000 11.8941 29.0538 -4.7139 0.0000 -0.0000 0.0000 73.1666 60.8012 63.8163 -23.6236 34.7637 -7.4908 0.0000 0.0000 4.4391 -52.2306 2.0975 -2.7045 7.1250 -0.0000 -0.0000 -19.2489 -26.4108 -9.1728
5.0324 16.2845 -23.9714 -540.9420 -58.9250 538.5420 0.0000 0.0000 0.0000 -18.9476 5.8099 -6.8033 2.1952 9.2614 26.6163 0.9068 -4.4394 -17.0519 0.1266 -2.2938 -6.3183 0.0000 0.0000 0.0000 18.0400 21.9167 -8.9223 -4.0933 -12.2836 36.7426 -0.7028 12.2197 -16.1037 -0.0467 -1.3947 3.8354 4.1838 0.4652 1.7512 1.6459 0.5933 1.8394 -0.6608 0.3085 0.9339 3.2733 2.2667 8.7337 -3.0744 2.7768 -17.5348 -1.7431 1.2551 -6.6800 -0.0000 -0.0000 0.0000 -63.8378 -19.0454 -5.9696 13.8027 -22.4519 -2.7523 -0.0000 0.0000 -16.9077 41.7799 -0.5708 -0.5100 -7.1250 0.0000 -0.0000 11.8371 29.1190 -4.6717 -0.0000 -0.0000 0.0000 73.9776 60.4022 65.2439 -24.0112 35.1761 -7.7130 0.0000 0.0000 3.8459 -51.9979 2.0329 -2.5994 7.1250 -0.0000 -0.0000 -19.1024 -26.5301 -9.0378
5.0242 16.2781 -23.9391 -541.1100 -58.7056 538.6430 0.0000 0.0000 0.0000 -19.1927 5.9855 -6.7255 2.1715 9.2145 26.4687 0.9245 -4.3110 -17.2349 0.1163 -2.1986 -6.0547 0.0000 0.0000 0.0000 17.7933 21.9326 -9.0329 -4.1212 -12.3200 36.8736 -0.6858 12.4664 -16.0317 -0.0378 -1.2553 3.4515 4.1338 0.4232 1.7490 1.6386 0.5373 1.8359 -0.6400 0.2800 0.9286 3.4380 2.4837 8.7021 -3.1831 3.0942 -17.2652 -1.8256 1.4132 -6.5724 -0.0000 -0.0000 0.0000 -63.9646 -18.8115 -5.8866 13.5911 -22.1471 -2.6720 -0.0000 0.0000 -16.6799 41.6839 -0.5222 -0.4649 -7.1250 0.0000 -0.0000 11.7711 29.1852 -4.6257 -0.0000 -0.0000 0.0000 74.7528 60.0068 66.6512 -24.4061 35.5907 -7.9417 0.0000 0.0000 3.2924 -51.7983 1.9739 -2.5061 7.1250 -0.0000 -0.0000 -18.9772 -26.6370 -8.9211
5.0159 16.2718 -23.9069 -541.3100 -58.4935 538.7680 0.0000 0.0000 0.0000 -19.4569 6.1678 -6.6469 2.1474 9.1667 26.3180 0.9418 -4.1883 -17.4134 0.1062 -2.1015 -5.7862 0.0000 0.0000 0.0000 17.5249 21.9397 -9.1450 -4.1500 -12.3574 37.0083 -0.6685 12.7240 -15.9649 -0.0301 -1.1203 3.0798 4.0683 0.3748 1.7356 1.6232 0.4718 1.8403 -0.6186 0.2471 0.9373 3.6160 2.7079 8.6471 -3.2945 3.4221 -16.9743 -1.9101 1.5762 -6.4526 0.0000 0.0000 0.0000 -64.0859 -18.5576 -5.7695 13.3984 -21.8682 -2.5998 -0.0000 0.0000 -16.4822 41.5747 -0.4629 -0.4106 -7.1250 0.0000 -0.0000 11.6965 29.2653 -4.5724 0.0000 0.0000 0.0000 75.4855 59.6294 68.0401 -24.8197 36.0191 -8.1836 0.0000 0.0000 2.7951 -51.6398 1.8738 -2.3658 7.1250 -0.0000 -0.0000 -18.8930 -26.8023 -8.7989
5.0077 16.2657 -23.8743 -541.4910 -58.3051 538.8830 0.0000 0.0000 0.0000 -19.7137 6.3278 -6.5750 2.1231 9.1178 26.1647 0.9583 -4.0596 -17.5842 0.0976 -2.0144 -5.5453 0.0000 0.0000 0.0000 17.2603 21.9420 -9.2684 -4.1793 -12.3953 37.1450 -0.6514 12.9787 -15.9023 -0.0239 -0.9984 2.7445 4.0155 0.3131 1.7114 1.6062 0.3881 1.8454 -0.6057 0.2053 0.9522 3.8132 2.9385 8.5761 -3.4150 3.7591 -16.6662 -1.9996 1.7437 -6.3229 0.0000 -0.0000 0.0000 -64.2053 -18.2820 -5.6216 13.2236 -21.6140 -2.5351 -0.0000 0.0000 -16.3099 41.4603 -0.3719 -0.3286 -7.1250 0.0000 -0.0000 11.6226 29.3868 -4.5081 0.0000 -0.0000 0.0000 76.1885 59.2679 69.4205 -25.2443 36.4527 -8.4346 0.0000 0.0000 2.3460 -51.4769 1.7953 -2.2536 7.1250 -0.0000 -0.0000 -18.7989 -26.9343 -8.6882
4.9994 16.2598 -23.8419 -541.6820 -58.1316 539.0060 0.0000 0.0000 0.0000 -19.9760 6.4811 -6.5026 2.0990 9.0692 26.0121 0.9743 -3.9348 -17.7511 0.0902 -1.9373 -5.3323 0.0000 0.0000 0.0000 16.9878 21.9406 -9.3910 -4.2087 -12.4331 37.2818 -0.6327 13.2393 -15.8310 -0.0200 -0.9124 2.5078 3.9558 0.2399 1.6683 1.5854 0.2874 1.8654 -0.5927 0.1554 0.9926 4.0309 3.1815 8.4626 -3.5470 4.1119 -16.3325 -2.0943 1.9190 -6.1757 -0.0000 0.0000 0.0000 -64.3216 -18.0129 -5.4796 13.0558 -21.3689 -2.4736 -0.0000 0.0000 -16.1387 41.3312 -0.2704 -0.2378 -7.1250 0.0000 -0.0000 11.5387 29.5220 -4.4364 -0.0000 0.0000 0.0000 76.8593 58.9391 70.7828 -25.6799 36.8909 -8.6948 0.0000 0.0000 1.9452 -51.2564 1.7558 -2.1868 7.1250 -0.0000 -0.0000 -18.6513 -27.0108 -8.5769
4.9914 16.2541 -23.8095 -541.8660 -57.9650 539.1270 0.0000 0.0000 0.0000 -20.2341 6.6212 -6.4395 2.0759 9.0224 25.8654 0.9899 -3.8127 -17.9126 0.0838 -1.8671 -5.1385 0.0000 0.0000 0.0000 16.7165 21.9501 -9.5194 -4.2379 -12.4704 37.4170 -0.6111 13.5007 -15.7390 -0.0180 -0.8673 2.3838 3.8948 0.1569 1.6198 1.5638 0.1733 1.8882 -0.5797 0.0989 1.0384 4.2577 3.4334 8.3324 -3.6760 4.4763 -15.9954 -2.1883 2.0994 -6.0230 0.0000 -0.0000 0.0000 -64.4419 -17.7415 -5.3478 12.8929 -21.1302 -2.4146 -0.0000 0.0000 -15.9537 41.1968 -0.1494 -0.1307 -7.1250 0.0000 -0.0000 11.4533 29.6823 -4.3576 0.0000 -0.0000 0.0000 77.5236 58.6290 72.1216 -26.1218 37.3287 -8.9614 0.0000 0.0000 1.6252 -51.0192 1.7557 -2.1683 7.1250 -0.0000 -0.0000 -18.4801 -27.0285 -8.4816
4.9839 16.2487 -23.7771 -542.0210 -57.7936 539.2280 0.0000 0.0000 0.0000 -20.4733 6.7532 -6.3875 2.0542 8.9782 25.7270 1.0044 -3.6978 -18.0640 0.0775 -1.7959 -4.9420 0.0000 0.0000 0.0000 16.4630 21.9762 -9.6499 -4.2666 -12.5069 37.5498 -0.5882 13.7480 -15.6335 -0.0171 -0.8431 2.3173 3.8390 0.0687 1.5677 1.5475 0.0518 1.9142 -0.5644 0.0388 1.0894 4.4915 3.6934 8.1911 -3.8021 4.8516 -15.6572 -2.2811 2.2847 -5.8667 -0.0000 -0.0000 0.0000 -64.5729 -17.4771 -5.2443 12.7271 -20.8860 -2.3551 -0.0000 0.0000 -15.7433 41.0607 -0.0165 -0.0144 -7.1250 0.0000 -0.0000 11.3679 29.8572 -4.2755 -0.0000 -0.0000 0.0000 78.1753 58.3264 73.4417 -26.5899 37.7853 -9.2467 0.0000 0.0000 1.2972 -50.8200 1.7509 -2.1470 7.1250 -0.0000 -0.0000 -18.3375 -27.0504 -8.3993
4.9771 16.2434 -23.7449 -542.1740 -57.6160 539.3320 0.0000 0.0000 0.0000 -20.7073 6.8781 -6.3482 2.0346 8.9378 25.6009 1.0175 -3.6039 -18.1993 0.0702 -1.7091 -4.7024 0.0000 0.0000 0.0000 16.2117 22.0186 -9.7841 -4.2950 -12.5429 37.6806 -0.5644 13.9798 -15.5173 -0.0162 -0.8218 2.2585 3.7682 -0.0239 1.5175 1.5346 -0.0754 1.9400 -0.5374 -0.0246 1.1391 4.7184 3.9576 8.0540 -3.9122 5.2320 -15.3365 -2.3667 2.4718 -5.7162 -0.0000 -0.0000 0.0000 -64.7208 -17.2201 -5.1807 12.5542 -20.6305 -2.2938 -0.0000 0.0000 -15.5045 40.9216 0.1036 0.0898 -7.1250 0.0000 -0.0000 11.2778 30.0152 -4.1971 -0.0000 -0.0000 0.0000 78.8276 58.0248 74.7333 -27.0786 38.2540 -9.5477 0.0000 0.0000 0.9746 -50.6583 1.6916 -2.0625 7.1250 -0.0000 -0.0000 -18.2369 -27.1507 -8.3028
4.9706 16.2382 -23.7127 -542.3000 -57.4334 539.4090 0.0000 0.0000 0.0000 -20.9221 6.9954 -6.3114 2.0172 8.9018 25.4887 1.0293 -3.5338 -18.3185 0.0613 -1.5973 -4.3939 0.0000 0.0000 0.0000 15.9796 22.0713 -9.9109 -4.3230 -12.5783 37.8096 -0.5403 14.1957 -15.3951 -0.0153 -0.7994 2.1971 3.6971 -0.1215 1.4709 1.5308 -0.2099 1.9722 -0.5011 -0.0917 1.1934 4.9292 4.2249 7.9324 -4.0023 5.6155 -15.0502 -2.4430 2.6595 -5.5793 0.0000 0.0000 0.0000 -64.8926 -16.9713 -5.1534 12.3778 -20.3688 -2.2321 -0.0000 0.0000 -15.2596 40.8020 0.2269 0.1959 -7.1250 0.0000 -0.0000 11.2029 30.1765 -4.1241 0.0000 0.0000 0.0000 79.4740 57.7258 75.9941 -27.5929 38.7388 -9.8679 0.0000 0.0000 0.6479 -50.6055 1.5424 -1.8772 7.1250 -0.0000 -0.0000 -18.2403 -27.3774 -8.2013
4.9644 16.2331 -23.6805 -542.4130 -57.2526 539.4730 0.0000 0.0000 0.0000 -21.1244 7.1076 -6.2843 2.0021 8.8705 25.3912 1.0387 -3.4941 -18.4110 0.0513 -1.4617 -4.0203 0.0000 0.0000 0.0000 15.7566 22.1304 -10.0378 -4.3512 -12.6136 37.9389 -0.5164 14.3967 -15.2709 -0.0142 -0.7682 2.1114 3.6180 -0.2246 1.4234 1.5349 -0.3523 2.0101 -0.4524 -0.1630 1.2543 5.1182 4.4955 7.8318 -4.0706 6.0025 -14.8016 -2.5091 2.8481 -5.4581 0.0000 -0.0000 0.0000 -65.0877 -16.7411 -5.1665 12.1935 -20.0943 -2.1683 -0.0000 0.0000 -15.0172 40.6991 0.3438 0.2957 -7.1250 0.0000 -0.0000 11.1396 30.3290 -4.0587 0.0000 -0.0000 0.0000 80.1130 57.4322 77.2258 -28.1247 39.2308 -10.2025 0.0000 0.0000 0.2908 -50.6006 1.3221 -1.6090 7.1250 -0.0000 -0.0000 -18.2983 -27.7069 -8.0792
